<svg width="468" height="130" viewBox="0 0 468 130" fill="none" xmlns="http://www.w3.org/2000/svg">
<g clip-path="url(#clip0_2559_409)">
<mask id="mask0_2559_409" style="mask-type:alpha" maskUnits="userSpaceOnUse" x="0" y="0" width="468" height="130">
<rect width="468" height="130" fill="url(#paint0_linear_2559_409)"/>
</mask>
<g mask="url(#mask0_2559_409)">
<circle cx="183.5" cy="4.5" r="1.5" fill="#FFE7D8"/>
<circle cx="157.5" cy="52.5" r="1.5" fill="#FFE7D8"/>
<circle cx="183.5" cy="28.5" r="1.5" fill="#FFE7D8"/>
<circle cx="157.5" cy="28.5" r="1.5" fill="#FFE7D8"/>
<circle cx="183.5" cy="100.5" r="1.5" fill="#FFE7D8"/>
<circle cx="183.5" cy="64.5" r="1.5" fill="#FFE7D8"/>
<circle cx="183.5" cy="40.5" r="1.5" fill="#FFE7D8"/>
<circle cx="157.5" cy="40.5" r="1.5" fill="#FFE7D8"/>
<circle cx="183.5" cy="88.5" r="1.5" fill="#FFE7D8"/>
<circle cx="157.5" cy="88.5" r="1.5" fill="#FFE7D8"/>
<circle cx="157.5" cy="112.5" r="1.5" fill="#FFE7D8"/>
<circle cx="351.5" cy="52.5" r="1.5" fill="#FFE7D8"/>
<circle cx="351.5" cy="28.5" r="1.5" fill="#FFE7D8"/>
<circle cx="351.5" cy="76.5" r="1.5" fill="#FFF4ED"/>
<circle cx="351.5" cy="100.5" r="1.5" fill="#FFF4ED"/>
<circle cx="351.5" cy="40.5" r="1.5" fill="#FFE7D8"/>
<circle cx="351.5" cy="112.5" r="1.5" fill="#FFE7D8"/>
<circle cx="267.5" cy="4.5" r="1.5" fill="#FFE7D8"/>
<circle cx="267.5" cy="28.5" r="1.5" fill="#FFE7D8"/>
<circle cx="267.5" cy="76.5" r="1.5" fill="#FFE7D8"/>
<circle cx="267.5" cy="16.5" r="1.5" fill="#FFE7D8"/>
<circle cx="267.5" cy="64.5" r="1.5" fill="#FFE7D8"/>
<circle cx="267.5" cy="40.5" r="1.5" fill="#FFE7D8"/>
<circle cx="267.5" cy="112.5" r="1.5" fill="#FFE7D8"/>
<circle cx="435.5" cy="4.5" r="1.5" fill="#FFE7D8"/>
<circle cx="435.5" cy="52.5" r="1.5" fill="#FFE7D8"/>
<circle cx="435.5" cy="28.5" r="1.5" fill="#FFE7D8"/>
<circle cx="435.5" cy="64.5" r="1.5" fill="#FFE7D8"/>
<circle cx="435.5" cy="40.5" r="1.5" fill="#FFF4ED"/>
<circle cx="435.5" cy="88.5" r="1.5" fill="#FFE7D8"/>
<circle cx="435.5" cy="112.5" r="1.5" fill="#FFE7D8"/>
<circle cx="225.5" cy="76.5" r="1.5" fill="#FFE7D8"/>
<circle cx="225.5" cy="100.5" r="1.5" fill="#FFE7D8"/>
<circle cx="225.5" cy="16.5" r="1.5" fill="#FFE7D8"/>
<circle cx="225.5" cy="64.5" r="1.5" fill="#FFE7D8"/>
<circle cx="225.5" cy="40.5" r="1.5" fill="#FFE7D8"/>
<circle cx="225.5" cy="88.5" r="1.5" fill="#FFE7D8"/>
<circle cx="225.5" cy="112.5" r="1.5" fill="#FFE7D8"/>
<circle cx="393.5" cy="4.5" r="1.5" fill="#FFE7D8"/>
<circle cx="393.5" cy="52.5" r="1.5" fill="#FFE7D8"/>
<circle cx="393.5" cy="28.5" r="1.5" fill="#FFF4ED"/>
<circle cx="393.5" cy="76.5" r="1.5" fill="#FFE7D8"/>
<circle cx="393.5" cy="100.5" r="1.5" fill="#FFE7D8"/>
<circle cx="393.5" cy="16.5" r="1.5" fill="#FFE7D8"/>
<circle cx="393.5" cy="112.5" r="1.5" fill="#FFE7D8"/>
<circle cx="309.5" cy="4.5" r="1.5" fill="#FFE7D8"/>
<circle cx="309.5" cy="28.5" r="1.5" fill="#FFE7D8"/>
<circle cx="309.5" cy="76.5" r="1.5" fill="#FFE7D8"/>
<circle cx="309.5" cy="64.5" r="1.5" fill="#FFE7D8"/>
<circle cx="309.5" cy="40.5" r="1.5" fill="#FFE7D8"/>
<circle cx="309.5" cy="88.5" r="1.5" fill="#FFE7D8"/>
<circle cx="171.5" cy="4.5" r="1.5" fill="#FFE7D8"/>
<circle cx="197.5" cy="76.5" r="1.5" fill="#FFE7D8"/>
<circle cx="171.5" cy="76.5" r="1.5" fill="#FFE7D8"/>
<circle cx="197.5" cy="100.5" r="1.5" fill="#FFE7D8"/>
<circle cx="171.5" cy="100.5" r="1.5" fill="#FFE7D8"/>
<circle cx="197.5" cy="16.5" r="1.5" fill="#FFE7D8"/>
<circle cx="171.5" cy="16.5" r="1.5" fill="#FFE7D8"/>
<circle cx="171.5" cy="64.5" r="1.5" fill="#FFE7D8"/>
<circle cx="197.5" cy="40.5" r="1.5" fill="#FFE7D8"/>
<circle cx="171.5" cy="40.5" r="1.5" fill="#FFE7D8"/>
<circle cx="197.5" cy="112.5" r="1.5" fill="#FFE7D8"/>
<circle cx="365.5" cy="4.5" r="1.5" fill="#FFE7D8"/>
<circle cx="365.5" cy="28.5" r="1.5" fill="#FFE7D8"/>
<circle cx="365.5" cy="76.5" r="1.5" fill="#FFE7D8"/>
<circle cx="365.5" cy="16.5" r="1.5" fill="#FFF4ED"/>
<circle cx="365.5" cy="40.5" r="1.5" fill="#FFF4ED"/>
<circle cx="365.5" cy="88.5" r="1.5" fill="#FFE7D8"/>
<circle cx="365.5" cy="112.5" r="1.5" fill="#FFE7D8"/>
<circle cx="281.5" cy="28.5" r="1.5" fill="#FFE7D8"/>
<circle cx="281.5" cy="76.5" r="1.5" fill="#FFE7D8"/>
<circle cx="281.5" cy="100.5" r="1.5" fill="#FFE7D8"/>
<circle cx="281.5" cy="64.5" r="1.5" fill="#FFE7D8"/>
<circle cx="281.5" cy="88.5" r="1.5" fill="#FFE7D8"/>
<circle cx="281.5" cy="112.5" r="1.5" fill="#FFE7D8"/>
<circle cx="449.5" cy="4.5" r="1.5" fill="#FFE7D8"/>
<circle cx="449.5" cy="52.5" r="1.5" fill="#FFE7D8"/>
<circle cx="449.5" cy="28.5" r="1.5" fill="#FFF4ED"/>
<circle cx="449.5" cy="100.5" r="1.5" fill="#FFE7D8"/>
<circle cx="449.5" cy="16.5" r="1.5" fill="#FFE7D8"/>
<circle cx="449.5" cy="64.5" r="1.5" fill="#FFF4ED"/>
<circle cx="449.5" cy="88.5" r="1.5" fill="#FFE7D8"/>
<circle cx="239.5" cy="4.5" r="1.5" fill="#FFE7D8"/>
<circle cx="239.5" cy="52.5" r="1.5" fill="#FFE7D8"/>
<circle cx="239.5" cy="28.5" r="1.5" fill="#FFE7D8"/>
<circle cx="239.5" cy="76.5" r="1.5" fill="#FFE7D8"/>
<circle cx="239.5" cy="16.5" r="1.5" fill="#FFE7D8"/>
<circle cx="239.5" cy="64.5" r="1.5" fill="#FFE7D8"/>
<circle cx="239.5" cy="40.5" r="1.5" fill="#FFE7D8"/>
<circle cx="407.5" cy="52.5" r="1.5" fill="#FFE7D8"/>
<circle cx="407.5" cy="28.5" r="1.5" fill="#FFE7D8"/>
<circle cx="407.5" cy="16.5" r="1.5" fill="#FFE7D8"/>
<circle cx="407.5" cy="64.5" r="1.5" fill="#FFF4ED"/>
<circle cx="407.5" cy="40.5" r="1.5" fill="#FFE7D8"/>
<circle cx="407.5" cy="88.5" r="1.5" fill="#FFE7D8"/>
<circle cx="323.5" cy="4.5" r="1.5" fill="#FFE7D8"/>
<circle cx="323.5" cy="52.5" r="1.5" fill="#FFE7D8"/>
<circle cx="323.5" cy="28.5" r="1.5" fill="#FFE7D8"/>
<circle cx="323.5" cy="100.5" r="1.5" fill="#FFE7D8"/>
<circle cx="323.5" cy="64.5" r="1.5" fill="#FFE7D8"/>
<circle cx="323.5" cy="88.5" r="1.5" fill="#FFE7D8"/>
<circle cx="323.5" cy="112.5" r="1.5" fill="#FFE7D8"/>
<circle cx="211.5" cy="4.5" r="1.5" fill="#FFE7D8"/>
<circle cx="211.5" cy="52.5" r="1.5" fill="#FFE7D8"/>
<circle cx="211.5" cy="16.5" r="1.5" fill="#FFE7D8"/>
<circle cx="211.5" cy="64.5" r="1.5" fill="#FFE7D8"/>
<circle cx="211.5" cy="40.5" r="1.5" fill="#FFE7D8"/>
<circle cx="211.5" cy="88.5" r="1.5" fill="#FFE7D8"/>
<circle cx="211.5" cy="112.5" r="1.5" fill="#FFE7D8"/>
<circle cx="379.5" cy="52.5" r="1.5" fill="#FFE7D8"/>
<circle cx="379.5" cy="100.5" r="1.5" fill="#FFE7D8"/>
<circle cx="379.5" cy="16.5" r="1.5" fill="#FFE7D8"/>
<circle cx="379.5" cy="64.5" r="1.5" fill="#FFE7D8"/>
<circle cx="379.5" cy="40.5" r="1.5" fill="#FFE7D8"/>
<circle cx="379.5" cy="88.5" r="1.5" fill="#FFF4ED"/>
<circle cx="295.5" cy="4.5" r="1.5" fill="#FFE7D8"/>
<circle cx="295.5" cy="52.5" r="1.5" fill="#FFE7D8"/>
<circle cx="295.5" cy="28.5" r="1.5" fill="#FFE7D8"/>
<circle cx="295.5" cy="16.5" r="1.5" fill="#FFE7D8"/>
<circle cx="295.5" cy="64.5" r="1.5" fill="#FFE7D8"/>
<circle cx="295.5" cy="40.5" r="1.5" fill="#FFE7D8"/>
<circle cx="295.5" cy="112.5" r="1.5" fill="#FFE7D8"/>
<circle cx="463.5" cy="4.5" r="1.5" fill="#FFE7D8"/>
<circle cx="463.5" cy="52.5" r="1.5" fill="#FFE7D8"/>
<circle cx="463.5" cy="76.5" r="1.5" fill="#FFE7D8"/>
<circle cx="463.5" cy="100.5" r="1.5" fill="#FFE7D8"/>
<circle cx="463.5" cy="16.5" r="1.5" fill="#FFE7D8"/>
<circle cx="463.5" cy="88.5" r="1.5" fill="#FFF4ED"/>
<circle cx="463.5" cy="112.5" r="1.5" fill="#FFE7D8"/>
<circle cx="253.5" cy="4.5" r="1.5" fill="#FFE7D8"/>
<circle cx="253.5" cy="52.5" r="1.5" fill="#FFE7D8"/>
<circle cx="253.5" cy="76.5" r="1.5" fill="#FFE7D8"/>
<circle cx="253.5" cy="100.5" r="1.5" fill="#FFE7D8"/>
<circle cx="253.5" cy="40.5" r="1.5" fill="#FFE7D8"/>
<circle cx="253.5" cy="88.5" r="1.5" fill="#FFE7D8"/>
<circle cx="253.5" cy="112.5" r="1.5" fill="#FFE7D8"/>
<circle cx="421.5" cy="4.5" r="1.5" fill="#FFE7D8"/>
<circle cx="421.5" cy="76.5" r="1.5" fill="#FFF4ED"/>
<circle cx="421.5" cy="100.5" r="1.5" fill="#FFE7D8"/>
<circle cx="421.5" cy="64.5" r="1.5" fill="#FFE7D8"/>
<circle cx="421.5" cy="88.5" r="1.5" fill="#FFE7D8"/>
<circle cx="421.5" cy="112.5" r="1.5" fill="#FFF4ED"/>
<circle cx="337.5" cy="4.5" r="1.5" fill="#FFE7D8"/>
<circle cx="337.5" cy="52.5" r="1.5" fill="#FFF4ED"/>
<circle cx="337.5" cy="76.5" r="1.5" fill="#FFE7D8"/>
<circle cx="337.5" cy="16.5" r="1.5" fill="#FFE7D8"/>
<circle cx="337.5" cy="64.5" r="1.5" fill="#FFE7D8"/>
<circle cx="337.5" cy="40.5" r="1.5" fill="#FFF4ED"/>
<circle cx="337.5" cy="88.5" r="1.5" fill="#FFE7D8"/>
</g>
</g>
<defs>
<linearGradient id="paint0_linear_2559_409" x1="277.69" y1="-6.50001" x2="233.471" y2="151.824" gradientUnits="userSpaceOnUse">
<stop stop-color="#D9D9D9"/>
<stop offset="0.443879" stop-color="#D9D9D9" stop-opacity="0"/>
</linearGradient>
<clipPath id="clip0_2559_409">
<rect width="468" height="130" fill="white"/>
</clipPath>
</defs>
</svg>
