<svg width="422" height="118" viewBox="0 0 422 118" fill="none" xmlns="http://www.w3.org/2000/svg">
<path d="M1 29.8835L3.02899 26.8554L6.68116 36.1727L8.71015 35.7068L9.92754 41.7631L11.5507 28.0201L16.0145 31.2811L18.8551 25.6908L22.1014 41.0643L22.913 77.1687L24.5362 61.5622L27.3768 69.7149L30.6232 59.2329L31.8406 57.3695C32.7874 54.0308 34.7623 46.3751 35.087 42.4618C35.4928 37.5703 37.5217 29.4177 37.9275 28.7189L39.1449 41.7631C39.2802 40.3655 40.687 36.4522 45.2319 31.9799L46.8551 38.0361L48.0725 33.1446C48.7488 36.8715 50.3449 44.5116 51.3188 45.257L54.1594 35.4739L55.7826 37.1044L58.2174 18.004L59.8406 31.2811L61.4638 33.1446L62.6812 38.7349L64.3043 35.4739L65.5217 22.6626C66.7391 27.5542 69.9044 37.71 72.8261 39.2008L74.0435 31.9799L76.0725 30.3494L77.6956 35.7068L79.7246 31.9799L81.3478 35.4739L82.971 37.1044L85 32.4458L86.2174 1C86.6232 5.03748 87.7594 13.5317 89.058 15.2088L91.087 14.9759L93.9275 30.8153L95.1449 26.3896L96.7681 26.1566L97.5797 24.992L99.6087 27.7871L100.826 20.1004L102.449 24.992L103.667 26.1566L105.29 34.3092L106.507 37.1044L108.536 34.3092L109.754 36.6386L110.971 53.8755L112.594 43.3936L115.435 44.0924C116.246 42.6171 117.951 38.5952 118.275 34.3092L121.116 36.1727L122.739 35.008L124.362 41.0643L125.986 51.7791L127.203 48.5181L128.826 55.9719L130.449 54.8072L134.507 42.9277L136.13 43.3936L137.754 41.996H138.971L141.812 34.0763L143.435 35.008L144.652 34.7751L146.681 52.7108L147.899 45.0241L149.522 44.0924H150.739L151.957 43.1606H153.58L156.014 37.1044L158.043 35.008L159.667 24.5261L161.696 25.2249L162.507 26.6225L163.725 25.9237L166.971 35.241L169.812 56.6707L170.623 41.7631L172.652 38.502L174.275 47.5863L177.522 44.5582L179.551 42.9277L181.174 37.8032L183.203 37.1044L185.638 45.49L186.855 38.0361L188.884 37.3373L190.101 38.7349L192.536 39.2008L194.159 44.3253L195.783 45.49L197.406 36.4056L200.246 32.2129H203.493L205.116 28.9518L207.145 30.3494L207.957 27.3213L210.391 26.3896L212.014 28.7189L213.638 28.253L214.855 25.2249L216.478 24.2932L218.101 19.1687L219.319 20.5663L220.536 22.8956L222.565 22.1968L224.188 23.8273L225.406 27.3213L226.623 25.2249L228.246 25.6908L235.551 36.6386L237.174 32.2129L240.826 41.5301L242.855 48.5181L244.072 42.2289L246.101 50.6145L250.159 37.1044L251.377 36.4056L253 38.9679L254.623 40.5984L255.435 47.3534L257.464 48.9839L259.087 41.5301L260.304 42.6948L263.551 43.1606L264.768 45.9558L268.42 42.2289L269.232 38.9679L270.449 40.1325L272.478 36.6386L275.319 35.241L276.536 36.6386L278.159 36.1727L278.971 38.9679L281 40.5984L282.217 38.0361L283.841 44.7912L285.464 36.6386L286.681 37.3373L288.304 37.8032L289.928 39.8996L292.362 30.5823L293.986 31.2811L295.609 30.3494L297.232 30.5823C297.773 28.8742 299.017 25.3181 299.667 24.759L301.696 28.4859V26.6225L302.507 28.0201L302.913 24.2932L304.536 25.9237L305.754 25.4578C306.565 26.2343 308.27 28.0667 308.594 29.1847C309 30.5823 309.812 31.747 310.623 32.4458C311.272 33.0048 311.705 35.9398 311.841 37.3373L313.058 33.6104L314.681 33.1446L315.899 35.241L317.522 32.6787L320.362 35.241L323.609 30.3494L326.449 44.3253L330.913 28.253L332.13 32.9116L333.754 33.1446L335.377 30.1165L336.594 32.2129L338.217 30.1165L339.435 31.0482L341.464 29.8835C342.275 32.1352 344.223 36.9181 345.522 38.0361L347.145 51.5462L349.58 41.2972L351.203 43.6265L352.826 66.4538L354.449 62.0281C355.261 64.0469 356.884 68.69 356.884 71.1124C357.425 69.7149 358.832 66.6867 360.13 65.755L361.754 67.1526L362.971 57.8353L365 61.3293L365.812 54.1084C366.623 56.0495 368.409 61.0032 369.058 65.2892C369.87 70.6466 371.899 69.9478 371.899 71.3454C371.899 72.4635 373.792 95.5703 374.739 106.984L375.957 95.8032C376.227 96.6573 377.012 98.5052 377.986 99.0643C379.203 99.7631 380.42 103.257 380.42 103.49C380.42 103.676 381.502 112.574 382.043 117L384.884 96.9679C385.831 96.5797 387.806 95.5237 388.13 94.4056L390.971 66.4538L392.188 71.3454C392.729 68.3949 393.812 62.5406 393.812 62.7269C393.812 62.9132 394.894 65.4444 395.435 66.6867L397.058 63.4257L399.493 67.3855L401.116 55.2731L402.739 53.8755L404.362 55.739L405.58 59.4659L408.015 59L410.043 61.0964L411.261 53.6426L412.478 55.9719L414.507 57.1365L416.942 69.4819L419.377 72.2771L420.188 74.1406L421 73.2088V117H382.043H1V29.8835Z" fill="url(#paint0_linear_2559_610)"/>
<path d="M1 29.8835L3.02899 26.8554L6.68116 36.1727L8.71015 35.7068L9.92754 41.7631L11.5507 28.0201L16.0145 31.2811L18.8551 25.6908L22.1015 41.0643L22.913 77.1687L24.5362 61.5622L27.3768 69.7149L30.6232 59.2329L31.8406 57.3695C32.7874 54.0308 34.7623 46.3751 35.087 42.4618C35.4928 37.5703 37.5217 29.4177 37.9275 28.7189L39.1449 41.7631C39.2802 40.3655 40.687 36.4522 45.2319 31.9799L46.8551 38.0361L48.0725 33.1446C48.7488 36.8715 50.3449 44.5116 51.3188 45.257L54.1594 35.4739L55.7826 37.1044L58.2174 18.004L59.8406 31.2811L61.4638 33.1446L62.6812 38.7349L64.3043 35.4739L65.5217 22.6626C66.7391 27.5542 69.9043 37.71 72.8261 39.2008L74.0435 31.9799L76.0725 30.3494L77.6957 35.7068L79.7246 31.9799L81.3478 35.4739L82.971 37.1044L85 32.4458L86.2174 1C86.6232 5.03748 87.7594 13.5317 89.058 15.2088L91.087 14.9759L93.9275 30.8153L95.1449 26.3896L96.7681 26.1566L97.5797 24.992L99.6087 27.7871L100.826 20.1004L102.449 24.992L103.667 26.1566L105.29 34.3092L106.507 37.1044L108.536 34.3092L109.754 36.6386L110.971 53.8755L112.594 43.3936L115.435 44.0924C116.246 42.6171 117.951 38.5952 118.275 34.3092L121.116 36.1727L122.739 35.008L124.362 41.0643L125.986 51.7791L127.203 48.5181L128.826 55.9719L130.449 54.8072L134.507 42.9277L136.13 43.3936L137.754 41.996H138.971L141.812 34.0763L143.435 35.008L144.652 34.7751L146.681 52.7108L147.899 45.0241L149.522 44.0924H150.739L151.957 43.1606H153.58L156.014 37.1044L158.043 35.008L159.667 24.5261L161.696 25.2249L162.507 26.6225L163.725 25.9237L166.971 35.241L169.812 56.6707L170.623 41.7631L172.652 38.502L174.275 47.5863L177.522 44.5582L179.551 42.9277L181.174 37.8032L183.203 37.1044L185.638 45.49L186.855 38.0361L188.884 37.3373L190.101 38.7349L192.536 39.2008L194.159 44.3253L195.783 45.49L197.406 36.4056L200.246 32.2129H203.493L205.116 28.9518L207.145 30.3494L207.957 27.3213L210.391 26.3896L212.015 28.7189L213.638 28.253L214.855 25.2249L216.478 24.2932L218.101 19.1687L219.319 20.5663L220.536 22.8956L222.565 22.1968L224.188 23.8273L225.406 27.3213L226.623 25.2249L228.246 25.6908L235.551 36.6386L237.174 32.2129L240.826 41.5301L242.855 48.5181L244.072 42.2289L246.101 50.6145L250.159 37.1044L251.377 36.4056L253 38.9679L254.623 40.5984L255.435 47.3534L257.464 48.9839L259.087 41.5301L260.304 42.6948L263.551 43.1606L264.768 45.9558L268.42 42.2289L269.232 38.9679L270.449 40.1325L272.478 36.6386L275.319 35.241L276.536 36.6386L278.159 36.1727L278.971 38.9679L281 40.5984L282.217 38.0361L283.841 44.7912L285.464 36.6386L286.681 37.3373L288.304 37.8032L289.928 39.8996L292.362 30.5823L293.986 31.2811L295.609 30.3494L297.232 30.5823C297.773 28.8742 299.017 25.3181 299.667 24.759L301.696 28.4859V26.6225L302.507 28.0201L302.913 24.2932L304.536 25.9237L305.754 25.4578C306.565 26.2343 308.27 28.0667 308.594 29.1847C309 30.5823 309.812 31.747 310.623 32.4458C311.272 33.0048 311.705 35.9398 311.841 37.3373L313.058 33.6104L314.681 33.1446L315.899 35.241L317.522 32.6787L320.362 35.241L323.609 30.3494L326.449 44.3253L330.913 28.253L332.13 32.9116L333.754 33.1446L335.377 30.1165L336.594 32.2129L338.217 30.1165L339.435 31.0482L341.464 29.8835C342.275 32.1352 344.223 36.9181 345.522 38.0361L347.145 51.5462L349.58 41.2972L351.203 43.6265L352.826 66.4538L354.449 62.0281C355.261 64.0469 356.884 68.69 356.884 71.1125C357.425 69.7149 358.832 66.6867 360.13 65.755L361.754 67.1526L362.971 57.8353L365 61.3293L365.812 54.1084C366.623 56.0495 368.409 61.0032 369.058 65.2892C369.87 70.6466 371.899 69.9478 371.899 71.3454C371.899 72.4635 373.792 95.5703 374.739 106.984L375.957 95.8032C376.227 96.6573 377.012 98.5052 377.985 99.0643C379.203 99.7631 380.42 103.257 380.42 103.49C380.42 103.676 381.502 112.574 382.043 117L384.884 96.9679C385.831 96.5796 387.806 95.5237 388.13 94.4056L390.971 66.4538L392.188 71.3454C392.729 68.3949 393.812 62.5406 393.812 62.7269C393.812 62.9132 394.894 65.4444 395.435 66.6867L397.058 63.4257L399.493 67.3855L401.116 55.2731L402.739 53.8755L404.362 55.739L405.58 59.4659L408.015 59L410.043 61.0964L411.261 53.6426L412.478 55.9719L414.507 57.1365L416.942 69.4819L419.377 72.2771L420.188 74.1406L421 73.2088" stroke="#5F00D9" stroke-width="1.5" stroke-linecap="round" stroke-linejoin="round"/>
<defs>
<linearGradient id="paint0_linear_2559_610" x1="211" y1="1" x2="211" y2="117" gradientUnits="userSpaceOnUse">
<stop stop-color="#5200FF" stop-opacity="0.2"/>
<stop offset="1" stop-color="#4305F4" stop-opacity="0"/>
</linearGradient>
</defs>
</svg>
