<svg width="468" height="130" viewBox="0 0 468 130" fill="none" xmlns="http://www.w3.org/2000/svg">
<g clip-path="url(#clip0_2559_314)">
<mask id="mask0_2559_314" style="mask-type:alpha" maskUnits="userSpaceOnUse" x="0" y="0" width="468" height="130">
<rect width="468" height="130" fill="url(#paint0_linear_2559_314)"/>
</mask>
<g mask="url(#mask0_2559_314)">
<rect x="288" y="73" width="20" height="20" stroke="#0C0C0C"/>
<rect x="368" y="73" width="20" height="20" fill="#8B49F7" fill-opacity="0.3" stroke="#0C0C0C"/>
<rect x="128" y="13" width="20" height="20" fill="#8B49F7" fill-opacity="0.3" stroke="#0C0C0C"/>
<rect x="208" y="73" width="20" height="20" stroke="#0C0C0C"/>
<rect x="128" y="73" width="20" height="20" fill="#8B49F7" fill-opacity="0.3" stroke="#0C0C0C"/>
<rect x="448" y="13" width="20" height="20" fill="#8B49F7" fill-opacity="0.3" stroke="#0C0C0C"/>
<rect x="308" y="13" width="20" height="20" stroke="#0C0C0C"/>
<rect x="308" y="73" width="20" height="20" stroke="#0C0C0C"/>
<rect x="388" y="13" width="20" height="20" fill="#8B49F7" fill-opacity="0.3" stroke="#0C0C0C"/>
<rect x="388" y="73" width="20" height="20" fill="#8B49F7" fill-opacity="0.3" stroke="#0C0C0C"/>
<rect x="228" y="13" width="20" height="20" fill="#8B49F7" fill-opacity="0.3" stroke="#0C0C0C"/>
<rect x="228" y="73" width="20" height="20" fill="#8B49F7" fill-opacity="0.3" stroke="#0C0C0C"/>
<rect x="468" y="13" width="20" height="20" fill="#8B49F7" fill-opacity="0.3" stroke="#0C0C0C"/>
<rect x="468" y="73" width="20" height="20" fill="#8B49F7" fill-opacity="0.3" stroke="#0C0C0C"/>
<rect x="308" y="33" width="20" height="20" fill="#8B49F7" fill-opacity="0.3" stroke="#0C0C0C"/>
<rect x="308" y="93" width="20" height="20" fill="#8B49F7" fill-opacity="0.3" stroke="#0C0C0C"/>
<rect x="388" y="33" width="20" height="20" stroke="#0C0C0C"/>
<rect x="388" y="113" width="20" height="20" stroke="#0C0C0C"/>
<rect x="228" y="33" width="20" height="20" stroke="#0C0C0C"/>
<rect x="148" y="33" width="20" height="20" stroke="#0C0C0C"/>
<rect x="228" y="93" width="20" height="20" stroke="#0C0C0C"/>
<rect x="148" y="93" width="20" height="20" fill="#8B49F7" fill-opacity="0.3" stroke="#0C0C0C"/>
<rect x="468" y="33" width="20" height="20" fill="#8B49F7" fill-opacity="0.3" stroke="#0C0C0C"/>
<rect x="468" y="93" width="20" height="20" fill="#8B49F7" fill-opacity="0.3" stroke="#0C0C0C"/>
<rect x="288" y="33" width="20" height="20" stroke="#0C0C0C"/>
<rect x="368" y="33" width="20" height="20" fill="#8B49F7" fill-opacity="0.3" stroke="#0C0C0C"/>
<rect x="368" y="93" width="20" height="20" stroke="#0C0C0C"/>
<rect x="368" y="113" width="20" height="20" fill="#8B49F7" fill-opacity="0.3" stroke="#0C0C0C"/>
<rect x="208" y="33" width="20" height="20" fill="#8B49F7" fill-opacity="0.3" stroke="#0C0C0C"/>
<rect x="128" y="33" width="20" height="20" fill="#8B49F7" fill-opacity="0.3" stroke="#0C0C0C"/>
<rect x="208" y="93" width="20" height="20" stroke="#0C0C0C"/>
<rect x="128" y="93" width="20" height="20" fill="#8B49F7" fill-opacity="0.3" stroke="#0C0C0C"/>
<rect x="128" y="113" width="20" height="20" fill="#8B49F7" fill-opacity="0.3" stroke="#0C0C0C"/>
<rect x="448" y="93" width="20" height="20" fill="#8B49F7" fill-opacity="0.3" stroke="#0C0C0C"/>
<rect x="448" y="113" width="20" height="20" fill="#8B49F7" fill-opacity="0.3" stroke="#0C0C0C"/>
<rect x="328" y="93" width="20" height="20" stroke="#0C0C0C"/>
<rect x="408" y="33" width="20" height="20" fill="#8B49F7" fill-opacity="0.3" stroke="#0C0C0C"/>
<rect x="408" y="113" width="20" height="20" stroke="#0C0C0C"/>
<rect x="248" y="93" width="20" height="20" fill="#8B49F7" fill-opacity="0.3" stroke="#0C0C0C"/>
<rect x="248" y="113" width="20" height="20" fill="#8B49F7" fill-opacity="0.3" stroke="#0C0C0C"/>
<rect x="328" y="73" width="20" height="20" fill="#8B49F7" fill-opacity="0.3" stroke="#0C0C0C"/>
<rect x="408" y="13" width="20" height="20" stroke="#0C0C0C"/>
<rect x="248" y="73" width="20" height="20" stroke="#0C0C0C"/>
<rect x="348" y="13" width="20" height="20" stroke="#0C0C0C"/>
<rect x="428" y="73" width="20" height="20" fill="#8B49F7" fill-opacity="0.3" stroke="#0C0C0C"/>
<rect x="268" y="13" width="20" height="20" stroke="#0C0C0C"/>
<rect x="188" y="73" width="20" height="20" fill="#8B49F7" fill-opacity="0.3" stroke="#0C0C0C"/>
<rect x="348" y="33" width="20" height="20" fill="#8B49F7" fill-opacity="0.3" stroke="#0C0C0C"/>
<rect x="348" y="113" width="20" height="20" stroke="#0C0C0C"/>
<rect x="428" y="33" width="20" height="20" fill="#8B49F7" fill-opacity="0.3" stroke="#0C0C0C"/>
<rect x="428" y="93" width="20" height="20" stroke="#0C0C0C"/>
<rect x="428" y="113" width="20" height="20" fill="#8B49F7" fill-opacity="0.3" stroke="#0C0C0C"/>
<rect x="268" y="33" width="20" height="20" stroke="#0C0C0C"/>
<rect x="188" y="33" width="20" height="20" fill="#8B49F7" fill-opacity="0.3" stroke="#0C0C0C"/>
<rect x="268" y="113" width="20" height="20" stroke="#0C0C0C"/>
<rect x="348" y="-7" width="20" height="20" fill="#8B49F7" fill-opacity="0.3" stroke="#0C0C0C"/>
<rect x="348" y="53" width="20" height="20" fill="#8B49F7" fill-opacity="0.3" stroke="#0C0C0C"/>
<rect x="428" y="53" width="20" height="20" stroke="#0C0C0C"/>
<rect x="268" y="-7" width="20" height="20" fill="#8B49F7" fill-opacity="0.3" stroke="#0C0C0C"/>
<rect x="328" y="-7" width="20" height="20" fill="#8B49F7" fill-opacity="0.3" stroke="#0C0C0C"/>
<rect x="328" y="53" width="20" height="20" stroke="#0C0C0C"/>
<rect x="408" y="-7" width="20" height="20" fill="#8B49F7" fill-opacity="0.3" stroke="#0C0C0C"/>
<rect x="248" y="-7" width="20" height="20" stroke="#0C0C0C"/>
<rect x="248" y="53" width="20" height="20" fill="#8B49F7" fill-opacity="0.3" stroke="#0C0C0C"/>
<rect x="168" y="53" width="20" height="20" fill="#8B49F7" fill-opacity="0.3" stroke="#0C0C0C"/>
<rect x="228" y="-7" width="20" height="20" fill="#8B49F7" fill-opacity="0.3" stroke="#0C0C0C"/>
<rect x="148" y="-7" width="20" height="20" fill="#8B49F7" fill-opacity="0.3" stroke="#0C0C0C"/>
<rect x="148" y="53" width="20" height="20" fill="#8B49F7" fill-opacity="0.3" stroke="#0C0C0C"/>
<rect x="468" y="-7" width="20" height="20" fill="#8B49F7" fill-opacity="0.3" stroke="#0C0C0C"/>
<rect x="468" y="53" width="20" height="20" fill="#8B49F7" fill-opacity="0.3" stroke="#0C0C0C"/>
<rect x="208" y="-7" width="20" height="20" fill="#8B49F7" fill-opacity="0.3" stroke="#0C0C0C"/>
<rect x="128" y="-7" width="20" height="20" fill="#8B49F7" fill-opacity="0.3" stroke="#0C0C0C"/>
<rect x="128" y="53" width="20" height="20" fill="#8B49F7" fill-opacity="0.3" stroke="#0C0C0C"/>
<rect x="448" y="-7" width="20" height="20" stroke="#0C0C0C"/>
<rect x="248" y="33" width="20" height="20" fill="#8B49F7" fill-opacity="0.3" stroke="#0C0C0C"/>
<rect x="188" y="-7" width="20" height="20" fill="#8B49F7" fill-opacity="0.3" stroke="#0C0C0C"/>
<g filter="url(#filter0_f_2559_314)">
<rect x="368" y="53" width="20" height="20" fill="#8B49F7" fill-opacity="0.3"/>
<rect x="368" y="53" width="20" height="20" stroke="#0C0C0C"/>
</g>
</g>
</g>
<defs>
<filter id="filter0_f_2559_314" x="366.5" y="51.5" width="23" height="23" filterUnits="userSpaceOnUse" color-interpolation-filters="sRGB">
<feFlood flood-opacity="0" result="BackgroundImageFix"/>
<feBlend mode="normal" in="SourceGraphic" in2="BackgroundImageFix" result="shape"/>
<feGaussianBlur stdDeviation="0.5" result="effect1_foregroundBlur_2559_314"/>
</filter>
<linearGradient id="paint0_linear_2559_314" x1="277.69" y1="-6.50001" x2="233.471" y2="151.824" gradientUnits="userSpaceOnUse">
<stop stop-color="#D9D9D9"/>
<stop offset="0.443879" stop-color="#D9D9D9" stop-opacity="0"/>
</linearGradient>
<clipPath id="clip0_2559_314">
<rect width="468" height="130" fill="white"/>
</clipPath>
</defs>
</svg>
